<?xml version="1.0" encoding="UTF-8" standalone="no"?>
<!-- Created with Inkscape (http://www.inkscape.org/) -->

<svg
   width="210mm"
   height="297mm"
   viewBox="0 0 210 297"
   version="1.1"
   id="svg5"
   inkscape:version="1.2 (1:1.2.1+202207142221+cd75a1ee6d)"
   sodipodi:docname="stuff_shop.svg"
   xmlns:inkscape="http://www.inkscape.org/namespaces/inkscape"
   xmlns:sodipodi="http://sodipodi.sourceforge.net/DTD/sodipodi-0.dtd"
   xmlns="http://www.w3.org/2000/svg"
   xmlns:svg="http://www.w3.org/2000/svg">
  <sodipodi:namedview
     id="namedview7"
     pagecolor="#ffffff"
     bordercolor="#000000"
     borderopacity="0.25"
     inkscape:showpageshadow="2"
     inkscape:pageopacity="0.0"
     inkscape:pagecheckerboard="0"
     inkscape:deskcolor="#ffffff"
     inkscape:document-units="px"
     showgrid="true"
     showborder="false"
     inkscape:zoom="0.12409585"
     inkscape:cx="543.93438"
     inkscape:cy="213.54461"
     inkscape:window-width="1920"
     inkscape:window-height="1016"
     inkscape:window-x="0"
     inkscape:window-y="0"
     inkscape:window-maximized="1"
     inkscape:current-layer="layer1">
    <inkscape:grid
       type="axonomgrid"
       id="grid132"
       units="px"
       spacingy="26.458333" />
  </sodipodi:namedview>
  <defs
     id="defs2" />
  <g
     inkscape:label="Слой 1"
     inkscape:groupmode="layer"
     id="layer1">
    <path
       style="fill:#d72c2c;fill-opacity:1;stroke-width:0.2;stroke-linecap:round;stroke-linejoin:round"
       d="M -181.6734,-79.235138 113.85432,-251.5684 413.48382,-79.291084 113.58342,94.847189 Z"
       id="path3066" />
    <path
       style="fill:#4b5859;fill-opacity:1;stroke-width:0.2;stroke-linecap:round;stroke-linejoin:round"
       d="M 115.3531,66.523478 -113.58931,-65.587107 114.92025,-198.96679 343.52108,-65.919841 Z"
       id="path238" />
    <path
       style="fill:#701414;fill-opacity:1;stroke-width:0.2;stroke-linecap:round;stroke-linejoin:round"
       d="m 114.21355,-224.99669 0.99821,26.13001 -228.50956,132.617049 -24.39861,-12.86478 z"
       id="path1010" />
    <path
       style="fill:#e88686;fill-opacity:1;stroke-width:0.2;stroke-linecap:round;stroke-linejoin:round"
       d="M 114.16349,-225.09976 367.08638,-78.958349 342.64065,-65.610662 115.30893,-197.3149 Z"
       id="path2146" />
    <path
       style="fill:#3e4a4a;fill-opacity:1;stroke-width:0.2;stroke-linecap:round;stroke-linejoin:round"
       d="m 114.93202,-197.50629 22.66428,12.07563 -228.035483,133.682981 -23.306187,-15.544328 z"
       id="path3878" />
    <path
       style="fill:#701414;fill-opacity:1;stroke-width:0.2;stroke-linecap:round;stroke-linejoin:round"
       d="m 412.95084,-78.443052 v 27.092889 L 114.54812,118.90225 114.26664,93.840151 Z"
       id="path5452"
       sodipodi:nodetypes="ccccc" />
    <path
       style="fill:#e88686;fill-opacity:1;stroke-width:0.2;stroke-linecap:round;stroke-linejoin:round"
       d="m -181.23376,-79.158988 v 27.263249 L 114.56017,118.88097 V 94.092645 Z"
       id="path5456" />
    <path
       style="fill:#dfdfdf;fill-opacity:1;stroke-width:0.2;stroke-linecap:round;stroke-linejoin:round"
       d="M 114.05749,119.22814 V 384.38272 L -160.43657,226.60793 V -39.883315 Z"
       id="path6061"
       sodipodi:nodetypes="ccccc" />
    <path
       style="fill:#b9b9b9;fill-opacity:1;stroke-width:0.2;stroke-linecap:round;stroke-linejoin:round"
       d="M 114.55365,119.08165 V 383.78217 L 390.16188,224.65967 V -38.394248 Z"
       id="path10275" />
    <path
       style="fill:#9e9e9e;fill-opacity:1;stroke-width:0.2;stroke-linecap:round;stroke-linejoin:round"
       d="m 114.08547,119.01245 v 26.67181 L 390.2512,-13.760098 v -24.539045 z"
       id="path10439" />
    <path
       style="fill:#11e4df;fill-opacity:1;stroke-width:0.2;stroke-linecap:round;stroke-linejoin:round"
       d="M 91.973298,343.96719 V 185.27018 L 0.34320215,132.36752 v 158.99511 z"
       id="path10819" />
    <path
       style="fill:#b7b7b7;fill-opacity:1;stroke-width:0.2;stroke-linecap:round;stroke-linejoin:round"
       d="M 0.04343225,132.5692 -22.917827,119.31251 V 305.44058 L 0.13618585,290.92316 Z"
       id="path17463" />
    <path
       style="fill:#ffffff;fill-opacity:1;stroke-width:0.2;stroke-linecap:round;stroke-linejoin:round"
       d="M -23.097712,305.67217 0.00637648,291.0146 91.688152,343.94708 v 28.24187 z"
       id="path17897" />
    <path
       style="fill:#701414;fill-opacity:1;stroke-width:0.2;stroke-linecap:round;stroke-linejoin:round"
       d="M -23.295142,305.71074 0.06036346,290.8282 V 264.41256 L -23.120807,277.79622 Z"
       id="path18007" />
    <path
       style="fill:#e88686;fill-opacity:1;stroke-width:0.2;stroke-linecap:round;stroke-linejoin:round"
       d="m -23.452452,305.57732 0.293058,-27.92122 -137.347016,-79.29732 v 28.31876 z"
       id="path19905" />
    <path
       style="fill:#e88686;fill-opacity:1;stroke-width:0.2;stroke-linecap:round;stroke-linejoin:round"
       d="m 91.496281,344.13724 22.867049,13.20229 -0.14502,26.95633 -22.638745,-13.0705 z"
       id="path20168"
       sodipodi:nodetypes="ccccc" />
    <path
       style="fill:#701414;fill-opacity:1;stroke-width:0.2;stroke-linecap:round;stroke-linejoin:round"
       d="M 114.5857,383.81887 V 357.21123 L 390.23686,198.06395 v 26.63701 z"
       id="path20170" />
    <path
       style="fill:#11e4df;fill-opacity:1;stroke-width:0.2;stroke-linecap:round;stroke-linejoin:round"
       d="M -45.778322,106.0159 -114.5105,66.333359 V 172.20296 l 68.512233,39.55556 z"
       id="path20241" />
    <path
       style="fill:#ececec;fill-opacity:1;stroke-width:0.2;stroke-linecap:round;stroke-linejoin:round"
       d="m -46.033025,211.99573 v 26.19701 l -91.352495,-52.74239 22.81981,-13.17502 z"
       id="path20312" />
    <path
       style="fill:#b7b7b7;fill-opacity:1;stroke-width:0.2;stroke-linecap:round;stroke-linejoin:round"
       d="m -114.57116,66.14764 -22.7617,-13.141471 V 185.45734 l 22.7896,-13.16706 z"
       id="path20452"
       sodipodi:nodetypes="ccccc" />
    <path
       style="fill:#11e4df;fill-opacity:1;stroke-width:0.2;stroke-linecap:round;stroke-linejoin:round"
       d="m 137.9787,184.8532 68.73218,-39.68254 v 105.8696 l -68.51223,39.55556 z"
       id="path20454" />
    <path
       style="fill:#ececec;fill-opacity:1;stroke-width:0.2;stroke-linecap:round;stroke-linejoin:round"
       d="m 138.23341,290.83303 v 26.19701 l 91.35249,-52.74239 -22.81981,-13.17502 z"
       id="path20456" />
    <path
       style="fill:#a6a6a6;fill-opacity:1;stroke-width:0.2;stroke-linecap:round;stroke-linejoin:round"
       d="m 206.77154,144.98494 22.7617,-13.14147 v 132.45117 l -22.7896,-13.16706 z"
       id="path20458"
       sodipodi:nodetypes="ccccc" />
    <path
       style="fill:#11e4df;fill-opacity:1;stroke-width:0.2;stroke-linecap:round;stroke-linejoin:round"
       d="M 274.33867,106.97367 343.07085,67.291131 V 173.16073 l -68.51223,39.55556 z"
       id="path20460" />
    <path
       style="fill:#ececec;fill-opacity:1;stroke-width:0.2;stroke-linecap:round;stroke-linejoin:round"
       d="m 274.59338,212.9535 v 26.19701 l 91.35249,-52.74239 -22.81981,-13.17502 z"
       id="path20462" />
    <path
       style="fill:#a6a6a6;fill-opacity:1;stroke-width:0.2;stroke-linecap:round;stroke-linejoin:round"
       d="m 343.13151,67.105411 22.7617,-13.14147 V 186.41511 l -22.7896,-13.16706 z"
       id="path20464"
       sodipodi:nodetypes="ccccc" />
    <path
       style="fill:#666666;fill-opacity:1;stroke-width:0.2;stroke-linecap:round;stroke-linejoin:round"
       d="m 115.52838,464.56208 411.5949,-239.62837 -137.06312,-79.04539 0.0644,78.82033 L 113.82302,384.30922 91.949727,371.68068 92.067887,344.11571 0.04823598,290.87554 -23.012147,305.42499 -160.35526,226.12991 V 198.40733 171.67515 L -275.22685,238.038 Z"
       id="path20466"
       sodipodi:nodetypes="cccccccccccccc" />
    <path
       style="fill:#555555;fill-opacity:1;stroke-width:0.2;stroke-linecap:round;stroke-linejoin:round"
       d="m 527.10669,224.99272 v 26.53334 L 114.17204,489.93398 v -26.44211 z"
       id="path20522" />
    <path
       style="fill:#898989;fill-opacity:1;stroke-width:0.2;stroke-linecap:round;stroke-linejoin:round"
       d="M 114.42078,489.9021 V 463.82876 L -275.50123,238.70719 v 26.57541 z"
       id="path21010" />
    <g
       id="g22731"
       transform="translate(688.05321,-290.7807)">
      <path
         id="path22524"
         style="fill:#791313;fill-opacity:1;stroke-width:0.206493;stroke-linecap:round;stroke-linejoin:round"
         d="m -677.06814,143.69479 c -46.7657,-26.89052 -84.6767,-29.3175 -84.67649,-5.4208 0.003,1.03823 0.0795,2.11795 0.22841,3.23709 l -40.31382,-23.21688 v 80.63281 l 252.47216,144.93693 -0.24517,-80.31296 -43.04699,-24.79047 c 0.16611,-0.98782 0.2523,-2.02441 0.25838,-3.10756 2.1e-4,-23.89646 -37.91078,-65.06757 -84.67648,-91.95815 z"
         sodipodi:nodetypes="sccccccccss" />
      <path
         id="path22667"
         style="fill:#ea7272;fill-opacity:1;stroke-width:0.206493;stroke-linecap:round;stroke-linejoin:round"
         d="m -700.07145,157.60224 a 100.40637,36.489997 35.227385 0 0 -84.67649,-5.4208 100.40637,36.489997 35.227385 0 0 0.22841,3.23709 l -40.31382,-23.21688 v 80.63281 l 252.22699,144.50437 v -79.8804 l -43.04699,-24.79047 a 100.40637,36.489997 35.227385 0 0 0.25838,-3.10756 100.40637,36.489997 35.227385 0 0 -84.67648,-91.95815 z" />
      <path
         style="fill:#791313;fill-opacity:1;stroke-width:0.2;stroke-linecap:round;stroke-linejoin:round"
         d="m -801.53668,118.35433 -23.20261,13.92885 23.00846,13.27402 z"
         id="path22723" />
      <path
         style="fill:#791313;fill-opacity:1;stroke-width:0.2;stroke-linecap:round;stroke-linejoin:round"
         d="m -549.52236,343.77272 -23.0756,-13.61029 0.003,27.06494 z"
         id="path22725"
         sodipodi:nodetypes="cccc" />
    </g>
    <path
       style="fill:#e88686;fill-opacity:1;stroke-width:0.2;stroke-linecap:round;stroke-linejoin:round"
       d="M -180.99136,-76.985128 -238.07908,21.893697 57.269136,193.21293 114.75527,93.644032 Z"
       id="path22733"
       sodipodi:nodetypes="ccccc" />
    <path
       style="fill:#701414;fill-opacity:1;stroke-width:0.2;stroke-linecap:round;stroke-linejoin:round"
       d="M 57.213886,193.05522 114.56599,159.94297 V 94.213742 Z"
       id="path23080" />
    <path
       style="fill:#d72c2c;fill-opacity:1;stroke-width:0.2;stroke-linecap:round;stroke-linejoin:round"
       d="m 57.21002,193.05209 v 26.58587 L -238.01003,49.192594 V 21.935923 Z"
       id="path23082" />
    <path
       style="fill:#701414;fill-opacity:1;stroke-width:0.2;stroke-linecap:round;stroke-linejoin:round"
       d="m 57.158517,219.64184 57.737623,-33.33484 -0.051,-26.77433 -57.847816,33.39845 z"
       id="path23222"
       sodipodi:nodetypes="ccccc" />
    <path
       style="fill:#f3f3f3;fill-opacity:1;stroke-width:0.2;stroke-linecap:round;stroke-linejoin:round"
       d="m -161.38527,-66.446359 -57.6534,99.858617 23.58036,13.614125 57.73053,-99.992202 z"
       id="path23293" />
    <path
       style="fill:#bfbfbf;fill-opacity:1;stroke-width:0.2;stroke-linecap:round;stroke-linejoin:round"
       d="M -195.4625,47.029833 V 74.087212 L -218.98193,60.596689 V 33.311388 Z"
       id="path25185"
       sodipodi:nodetypes="ccccc" />
    <path
       style="fill:#f3f3f3;fill-opacity:1;stroke-width:0.2;stroke-linecap:round;stroke-linejoin:round"
       d="m -115.43353,-39.811402 -57.6534,99.85862 23.58036,13.614125 57.73053,-99.992205 z"
       id="path25187" />
    <path
       style="fill:#bfbfbf;fill-opacity:1;stroke-width:0.2;stroke-linecap:round;stroke-linejoin:round"
       d="M -149.51076,73.664793 V 100.72217 L -173.03019,87.231649 V 59.946348 Z"
       id="path25189"
       sodipodi:nodetypes="ccccc" />
    <path
       style="fill:#f3f3f3;fill-opacity:1;stroke-width:0.2;stroke-linecap:round;stroke-linejoin:round"
       d="m -69.645682,-13.39456 -57.653408,99.858617 23.58036,13.614123 57.730541,-99.99220039 z"
       id="path25191" />
    <path
       style="fill:#bfbfbf;fill-opacity:1;stroke-width:0.2;stroke-linecap:round;stroke-linejoin:round"
       d="m -103.72292,100.08163 v 27.05739 l -23.51943,-13.49053 V 86.363187 Z"
       id="path25193"
       sodipodi:nodetypes="ccccc" />
    <path
       style="fill:#f3f3f3;fill-opacity:1;stroke-width:0.2;stroke-linecap:round;stroke-linejoin:round"
       d="m -23.736178,13.041552 -57.6534,99.858628 23.58036,13.61412 57.73053436,-99.992208 z"
       id="path25195" />
    <path
       style="fill:#bfbfbf;fill-opacity:1;stroke-width:0.2;stroke-linecap:round;stroke-linejoin:round"
       d="m -57.813408,126.51775 v 27.05738 l -23.51943,-13.49052 v -27.2853 z"
       id="path25197"
       sodipodi:nodetypes="ccccc" />
    <path
       style="fill:#f3f3f3;fill-opacity:1;stroke-width:0.2;stroke-linecap:round;stroke-linejoin:round"
       d="m 21.941788,39.533638 -57.6534,99.858622 23.580359,13.61412 57.730534,-99.992202 z"
       id="path25199" />
    <path
       style="fill:#bfbfbf;fill-opacity:1;stroke-width:0.2;stroke-linecap:round;stroke-linejoin:round"
       d="m -12.135443,153.00983 v 27.05738 l -23.519429,-13.49052 v -27.2853 z"
       id="path25201"
       sodipodi:nodetypes="ccccc" />
    <path
       style="fill:#f3f3f3;fill-opacity:1;stroke-width:0.2;stroke-linecap:round;stroke-linejoin:round"
       d="M 67.814827,65.980097 10.161428,165.83872 33.741787,179.45284 91.47232,79.460637 Z"
       id="path25203" />
    <path
       style="fill:#bfbfbf;fill-opacity:1;stroke-width:0.2;stroke-linecap:round;stroke-linejoin:round"
       d="m 33.737597,179.45629 v 27.05738 L 10.218168,193.02315 v -27.2853 z"
       id="path25205"
       sodipodi:nodetypes="ccccc" />
  </g>
</svg>
